# AST/ASF file generated using VICON BodyLanguage
# -----------------------------------------------
:version 1.10
:name VICON
:units
  mass 1.0
  length 0.45
  angle deg
:documentation
   .ast/.asf automatically generated from VICON data using
   VICON BodyBuilder and BodyLanguage model FoxedUp or BRILLIANT.MOD
:root
   order TX TY TZ RX RY RZ
   axis XYZ
   position 0 0 0  
   orientation 0 0 0 
:bonedata
  begin
     id 1 
     name lhipjoint
     direction 0.661853 -0.702389 0.261917 
     length 2.64193 
     axis 0 0 0  XYZ
  end
  begin
     id 2 
     name lfemur
     direction 0.34202 -0.939693 0  
     length 7.01722  
     axis 0 0 20  XYZ
    dof rx ry rz
    limits (-160.0 20.0)
           (-70.0 70.0)
           (-60.0 70.0)
  end
  begin
     id 3 
     name ltibia
     direction 0.34202 -0.939693 0   
     length 8.25008   
     axis 0 0 20   XYZ
    dof rx
    limits (-10.0 170.0)
  end
  begin
     id 4 
     name lfoot
     direction 0.0709916 -0.195048 0.978221   
     length 2.31941   
     axis -90 7.62852e-016 20   XYZ
    dof rx rz
    limits (-45.0 90.0)
           (-70.0 20.0)
  end
  begin
     id 5 
     name ltoes
     direction 1.53586e-011 -4.22017e-011 1   
     length 1.16486   
     axis -90 7.62852e-016 20   XYZ
    dof rx
    limits (-90.0 20.0)
  end
  begin
     id 6 
     name rhipjoint
     direction -0.638185 -0.721362 0.268992   
     length 2.57244  
     axis 0 0 0  XYZ 
  end
  begin
     id 7 
     name rfemur
     direction -0.34202 -0.939693 0   
     length 7.07017   
     axis 0 0 -20   XYZ
    dof rx ry rz
    limits (-160.0 20.0)
           (-70.0 70.0)
           (-70.0 60.0)
  end
  begin
     id 8 
     name rtibia
     direction -0.34202 -0.939693 0   
     length 8.20386   
     axis 0 0 -20   XYZ
    dof rx
    limits (-10.0 170.0)
 end
 begin
     id 9 
     name rfoot
     direction -0.0822429 -0.225961 0.970658   
     length 2.32215  
     axis -90 -7.62852e-016 -20   XYZ
    dof rx rz
    limits (-45.0 90.0)
           (-20.0 70.0)
  end
  begin
     id 10 
     name rtoes
     direction -1.53597e-011 -4.21689e-011 1   
     length 1.16333   
     axis -90 -7.62852e-016 -20   XYZ
    dof rx
    limits (-90.0 20.0)
  end
  begin
     id 11 
     name lowerback
     direction -0.0131557 0.998589 -0.0514484   
     length 2.14993   
     axis 0 0 0   XYZ
    dof rx ry rz
    limits (-20.0 45.0)
           (-30.0 30.0)
           (-30.0 30.0)
  end
  begin
     id 12 
     name upperback
     direction -0.000776481 0.999993 0.00352685   
     length 2.15301   
     axis 0 0 0   XYZ
    dof rx ry rz
    limits (-20.0 45.0)
           (-30.0 30.0)
           (-30.0 30.0)
  end
  begin
     id 13 
     name thorax
     direction 0.00438186 0.999609 0.0276143   
     length 2.15424   
     axis 0 0 0   XYZ
    dof rx ry rz
    limits (-20.0 45.0)
           (-30.0 30.0)
           (-30.0 30.0)
  end
  begin
     id 14 
     name lowerneck
     direction -0.0488006 0.998094 0.0377807   
     length 1.90481   
     axis 0 0 0   XYZ
    dof rx ry rz
    limits (-20.0 45.0)
           (-30.0 30.0)
           (-30.0 30.0)
  end
  begin
     id 15 
     name upperneck
     direction 0.0443769 0.990702 -0.12861   
     length 1.91305   
     axis 0 0 0   XYZ
    dof rx ry rz
    limits (-20.0 45.0)
           (-30.0 30.0)
           (-30.0 30.0)
  end
  begin
     id 16
     name head
     direction 0.0165599 0.998647 -0.0492982  
     length 1.92369  
     axis 0 0 0   XYZ
    dof rx ry rz
    limits (-20.0 45.0)
           (-30.0 30.0)
           (-30.0 30.0)
  end
  begin
     id 17 
     name lclavicle
     direction 0.911936 0.410197 -0.0105506  
     length 3.52622  
     axis 0 0 0   XYZ
    dof ry rz
    limits (-20.0 10.0)
           (0.0 20.0)
  end
  begin
     id 18 
     name lhumerus
     direction 1 -4.48974e-011 -2.48591e-028   
     length 5.47651   
     axis 180 -30 -90   XYZ
    dof rx ry rz
    limits (-60.0 90.0)
           (-90.0 90.0)
           (-90.0 90.0)
  end
  begin
     id 19
     name lradius
     direction 1 -4.48938e-011 -4.40099e-027   
     length 3.09058   
     axis 180 -30 -90   XYZ
    dof rx
    limits (-10.0 170.0)
  end
  begin
     id 20
     name lwrist
     direction 1 -4.49042e-011 -2.99852e-027   
     length 1.54529   
     axis 1.95339e-015 90 90   XYZ
    dof ry
    limits (-180.0 0.0)
 end
  begin
     id 21 
     name lhand
     direction 1 -4.48815e-011 -5.98193e-027   
     length 0.771611   
     axis 3.82337e-015 90 90   XYZ
    dof rx rz
    limits (-90.0 90.0)
           (-45.0 45.0)
  end
  begin
     id 22 
     name lfingers
     direction 1 -4.49034e-011 -1.1993e-026   
     length 0.622093   
     axis 7.64668e-015 90 90   XYZ
    dof rx
    limits (0.0 90.0)
  end
  begin
     id 23
     name lthumb
     direction 0.707107 -6.34867e-011 0.707107   
     length 0.893204   
     axis -90 45 -1.62303e-014   XYZ
    dof rx rz
    limits (-45.0 45.0)
           (-45.0 45.0)
  end
  begin
     id 24 
     name rclavicle
     direction -0.93442 0.355634 -0.0195692   
     length 3.62463  
     axis 0 0 0   XYZ 
    dof ry rz
    limits (-10.0 20.0)
           (-20.0 0.0)
  end
  begin
     id 25 
     name rhumerus
     direction -1 -4.48957e-011 -1.19147e-027  
     length 5.14182   
     axis 180 30 90   XYZ
    dof rx ry rz
    limits (-90.0 60.0)
           (-90.0 90.0)
           (-90.0 90.0)
  end
  begin
     id 26 
     name rradius
     direction -1 -4.48952e-011 -3.81062e-027   
     length 3.35565   
     axis 180 30 90   XYZ
    dof rx
    limits (-10.0 170.0)
  end
  begin
     id 27 
     name rwrist
     direction -1 -4.48973e-011 -2.99621e-027   
     length 1.67782   
     axis 1.95339e-015 -90 -90   XYZ
    dof ry
    limits (-180.0 0.0)
  end
  begin
     id 28
     name rhand
     direction -1 -4.48895e-011 -5.98727e-027   
     length 0.801042   
     axis 3.82337e-015 -90 -90   XYZ
    dof rx rz
    limits (-90.0 90.0)
           (-45.0 45.0)
  end
  begin
     id 29
     name rfingers
     direction -1 -4.49065e-011 -1.19972e-026   
     length 0.645821   
     axis 7.64668e-015 -90 -90   XYZ
    dof rx
    limits (0.0 90.0)
  end
  begin
     id 30
     name rthumb
     direction -0.707107 -6.34957e-011 0.707107   
     length 0.927273   
     axis -90 -45 1.62303e-014   XYZ
    dof rx rz
    limits (-45.0 45.0)
           (-45.0 45.0)
  end
:hierarchy
  begin
    root lhipjoint rhipjoint lowerback
    lhipjoint lfemur
    lfemur ltibia
    ltibia lfoot
    lfoot ltoes
    rhipjoint rfemur
    rfemur rtibia
    rtibia rfoot
    rfoot rtoes
    lowerback upperback
    upperback thorax
    thorax lowerneck lclavicle rclavicle
    lowerneck upperneck
    upperneck head
    lclavicle lhumerus
    lhumerus lradius
    lradius lwrist
    lwrist lhand lthumb
    lhand lfingers
    rclavicle rhumerus
    rhumerus rradius
    rradius rwrist
    rwrist rhand rthumb
    rhand rfingers
  end

#!OML:ASF E:\Style4\Style4.ASF
:FULLY-SPECIFIED
:DEGREES
669
root -0.30566 17.8108 -2.07429 5.14089 -0.268341 1.46927
lowerback 13.4344 2.39175 1.57702
upperback 12.331 3.24486 1.23906
thorax 5.58259 1.68952 0.157131
lowerneck 5.66129 -4.03232 -4.75746
upperneck -9.9688 -5.59984 3.11696
head -4.05899 -2.74915 2.18084
rclavicle -3.02153e-014 -1.43125e-014
rhumerus 59.5248 12.0091 -32.6196
rradius 62.2789
rwrist -95.7102
rhand -31.5997 -6.76164
rfingers 7.12502
rthumb -4.86225 -36.6859
lclavicle -3.02153e-014 -1.43125e-014
lhumerus 65.7486 -15.1618 20.4076
lradius 72.5847
lwrist 97.2299
lhand -17.6356 53.0638
lfingers 7.12502
lthumb 8.622 82.8678
rfemur -24.757 -2.45553 19.0243
rtibia 34.0653
rfoot -13.4249 -16.4229
rtoes -7.93496
lfemur -23.9568 -0.167049 -18.3636
ltibia 32.1659
lfoot -12.9394 12.3802
ltoes -19.033
670
root -0.297192 17.8019 -2.08614 5.18909 -0.318024 1.5832
lowerback 13.5518 2.36781 1.52714
upperback 12.4126 3.21033 1.20633
thorax 5.60906 1.67048 0.150845
lowerneck 5.53129 -3.99728 -4.95067
upperneck -9.89927 -5.55033 3.26223
head -4.00232 -2.72496 2.2553
rclavicle -7.95139e-016 -2.14687e-014
rhumerus 59.1133 12.3573 -32.3842
rradius 62.947
rwrist -95.9535
rhand -31.785 -6.51537
rfingers 7.12502
rthumb -5.04117 -36.4354
lclavicle -7.95139e-016 -2.14687e-014
lhumerus 65.3889 -15.4531 20.0492
lradius 73.241
lwrist 97.3492
lhand -17.5651 53.037
lfingers 7.12502
lthumb 8.69005 82.8382
rfemur -25.076 -2.47244 18.88
rtibia 34.4418
rfoot -13.4942 -16.4088
rtoes -8.12183
lfemur -24.1816 -0.0903425 -18.5288
ltibia 32.4225
lfoot -12.9572 12.3314
ltoes -19.0669
671
root -0.289466 17.7914 -2.09802 5.26696 -0.369208 1.60966
lowerback 13.6005 2.35716 1.54945
upperback 12.5031 3.19743 1.19201
thorax 5.68583 1.66674 0.12563
lowerneck 5.3888 -3.99334 -4.99631
upperneck -9.81123 -5.5408 3.28031
head -3.94164 -2.72023 2.26088
rclavicle -1.59028e-015 -3.97569e-015
rhumerus 58.7124 12.6152 -32.2263
rradius 63.6162
rwrist -96.0993
rhand -31.8973 -6.98053
rfingers 7.12502
rthumb -5.14953 -36.898
lclavicle -1.59028e-015 -3.97569e-015
lhumerus 65.1371 -15.8779 19.9312
lradius 73.7857
lwrist 97.3839
lhand -17.8598 52.9468
lfingers 7.12502
lthumb 8.40568 82.7595
rfemur -25.4356 -2.47741 18.8386
rtibia 34.8254
rfoot -13.5832 -16.3963
rtoes -8.24938
lfemur -24.4466 0.0251849 -18.5959
ltibia 32.6778
lfoot -13.0437 12.2639
ltoes -19.0176
672
root -0.28261 17.7788 -2.10954 5.3337 -0.454292 1.75565
lowerback 13.6528 2.36724 1.42893
upperback 12.6 3.20048 1.14988
thorax 5.76122 1.66184 0.149177
lowerneck 5.28412 -3.99712 -4.99036
upperneck -9.78305 -5.54153 3.27059
head -3.91125 -2.72058 2.25163
rclavicle -1.51076e-014 -1.11319e-014
rhumerus 58.3089 12.8691 -32.0656
rradius 64.2998
rwrist -96.2191
rhand -32.2338 -7.48487
rfingers 7.12502
rthumb -5.47451 -37.3942
lclavicle -1.51076e-014 -1.11319e-014
lhumerus 64.975 -16.4508 19.9925
lradius 74.1587
lwrist 97.2007
lhand -18.0373 53.283
lfingers 7.12502
lthumb 8.2343 83.1026
rfemur -25.7946 -2.48005 18.6697
rtibia 35.1971
rfoot -13.585 -16.3754
rtoes -8.64779
lfemur -24.7032 0.121433 -18.7917
ltibia 32.9495
lfoot -13.1315 12.2441
ltoes -19.2366
673
root -0.273623 17.766 -2.12082 5.41355 -0.555184 1.78341
lowerback 13.6817 2.36592 1.44715
upperback 12.6893 3.1987 1.13953
thorax 5.84728 1.66301 0.130349
lowerneck 5.24975 -3.99724 -5.04351
upperneck -9.79804 -5.54322 3.29103
head -3.90795 -2.72029 2.26729
rclavicle 2.62396e-014 2.38542e-015
rhumerus 57.8917 13.2131 -31.9083
rradius 64.9855
rwrist -96.194
rhand -32.5035 -7.38611
rfingers 7.12502
rthumb -5.73486 -37.2885
lclavicle 2.62396e-014 2.38542e-015
lhumerus 64.7066 -16.8975 19.9584
lradius 74.697
lwrist 97.2015
lhand -18.1754 54.2153
lfingers 7.12502
lthumb 8.10109 84.04
rfemur -26.1378 -2.46045 18.6225
rtibia 35.5337
rfoot -13.5682 -16.3552
rtoes -9.30257
lfemur -24.9948 0.259599 -18.8612
ltibia 33.2582
lfoot -13.2112 12.1915
ltoes -19.511
